<svg xmlns="http://www.w3.org/2000/svg" xmlns:xlink="http://www.w3.org/1999/xlink" viewBox="0 0 326.36 364.35"><defs><style>.cls-1{fill:url(#Degradado_sin_nombre_24);}.cls-2{fill:url(#Degradado_sin_nombre_24-2);}.cls-3{fill:url(#Degradado_sin_nombre_15);}</style><linearGradient id="Degradado_sin_nombre_24" x1="127.73" y1="83.64" x2="187.81" y2="140.18" gradientUnits="userSpaceOnUse"><stop offset="0" stop-color="#121b23"/><stop offset="0.72" stop-color="#121319"/><stop offset="1" stop-color="#120e14"/></linearGradient><linearGradient id="Degradado_sin_nombre_24-2" x1="137.17" y1="78.74" x2="197.55" y2="135.56" xlink:href="#Degradado_sin_nombre_24"/><linearGradient id="Degradado_sin_nombre_15" x1="74.52" y1="308.51" x2="189.56" y2="202.67" gradientUnits="userSpaceOnUse"><stop offset="0" stop-color="#db0055"/><stop offset="0.37" stop-color="#e00a4f"/><stop offset="1" stop-color="#ef243f"/></linearGradient></defs><g id="Capa_2" data-name="Capa 2"><g id="Capa_1-2" data-name="Capa 1"><path class="cls-1" d="M188.52,51.87l-29-32c-4.64-5.08-13-5.85-18.77-1.73-5,3.6-6.28,9.73-3.45,14.61a11.63,11.63,0,0,0,1.5,2.06l34.35,37.55c2.84,4.89,1.54,11-3.45,14.62a14.51,14.51,0,0,1-18.77-1.73L141,74.45l-32.8-35.87a.08.08,0,0,0,0,0,14.51,14.51,0,0,0-18.73-1.69C84,40.75,83,47.64,86.81,52.68l56.83,62.18c4.64,5.07,3.78,12.54-1.95,16.66s-14.12,3.35-18.76-1.73L41.15,40.32a11.17,11.17,0,0,1-1.09-1.42L23.71,21c-4.65-5.08-13.06-5.85-18.77-1.73S-1.66,30.88,3,36L154.74,202.77C177.58,199.47,240.85,109.15,188.52,51.87Z"/><path class="cls-2" d="M63.11,26.74a14.6,14.6,0,0,0,17.83.81c5.72-4.12,6.59-11.59,2-16.66l-6-6.51C72.29-.7,63.9-1.47,58.17,2.65s-6.59,11.58-1.94,16.67l4.61,5,1.33,1.46A11.64,11.64,0,0,0,63.11,26.74Z"/><path class="cls-3" d="M188.52,51.87C203,72,221.93,121.22,154.74,202.77L7.16,364.35H178.78L326.36,202.77Z"/></g></g></svg>